<?xml version="1.0" encoding="UTF-8" standalone="no"?>
<!-- Created with Inkscape (http://www.inkscape.org/) -->

<svg
   xmlns:dc="http://purl.org/dc/elements/1.1/"
   xmlns:cc="http://creativecommons.org/ns#"
   xmlns:rdf="http://www.w3.org/1999/02/22-rdf-syntax-ns#"
   xmlns:svg="http://www.w3.org/2000/svg"
   xmlns="http://www.w3.org/2000/svg"
   xmlns:sodipodi="http://sodipodi.sourceforge.net/DTD/sodipodi-0.dtd"
   xmlns:inkscape="http://www.inkscape.org/namespaces/inkscape"
   width="256"
   height="256"
   id="svg2907"
   version="1.1"
   inkscape:version="0.47pre4 r22446"
   sodipodi:docname="New document 4">
  <defs
     id="defs2909">
    <inkscape:perspective
       sodipodi:type="inkscape:persp3d"
       inkscape:vp_x="0 : 526.18109 : 1"
       inkscape:vp_y="0 : 1000 : 0"
       inkscape:vp_z="744.09448 : 526.18109 : 1"
       inkscape:persp3d-origin="372.04724 : 350.78739 : 1"
       id="perspective2915" />
    <inkscape:perspective
       id="perspective2892"
       inkscape:persp3d-origin="0.5 : 0.33333333 : 1"
       inkscape:vp_z="1 : 0.5 : 1"
       inkscape:vp_y="0 : 1000 : 0"
       inkscape:vp_x="0 : 0.5 : 1"
       sodipodi:type="inkscape:persp3d" />
  </defs>
  <sodipodi:namedview
     id="base"
     pagecolor="#ffffff"
     bordercolor="#666666"
     borderopacity="1.0"
     inkscape:pageopacity="0.0"
     inkscape:pageshadow="2"
     inkscape:zoom="0.35"
     inkscape:cx="271.57143"
     inkscape:cy="-114.85714"
     inkscape:document-units="px"
     inkscape:current-layer="layer1"
     showgrid="false"
     inkscape:showpageshadow="false"
     inkscape:window-width="607"
     inkscape:window-height="489"
     inkscape:window-x="0"
     inkscape:window-y="48"
     inkscape:window-maximized="0" />
  <metadata
     id="metadata2912">
    <rdf:RDF>
      <cc:Work
         rdf:about="">
        <dc:format>image/svg+xml</dc:format>
        <dc:type
           rdf:resource="http://purl.org/dc/dcmitype/StillImage" />
        <dc:title></dc:title>
      </cc:Work>
    </rdf:RDF>
  </metadata>
  <g
     inkscape:label="Layer 1"
     inkscape:groupmode="layer"
     id="layer1"
     transform="translate(-103.42857,-161.50504)">
    <g
       id="g2969"
       transform="translate(-162.71874,-167.91885)"
       inkscape:export-filename="/home/bleras/Desktop/tico-interpreter-round.png"
       inkscape:export-xdpi="300"
       inkscape:export-ydpi="300">
      <rect
         ry="30.684849"
         y="329.42389"
         x="266.14731"
         height="256"
         width="256"
         id="rect2891-1"
         style="fill:#ffffff;fill-opacity:1;stroke:none" />
      <g
         transform="translate(-36.204662,330.10529)"
         id="g2872">
        <path
           sodipodi:type="arc"
           style="fill:#ffffff;fill-opacity:1;stroke:none"
           id="path4157-9"
           sodipodi:cx="508.39285"
           sodipodi:cy="328.61218"
           sodipodi:rx="10.535714"
           sodipodi:ry="19.107143"
           d="m 518.92857,328.61218 c 0,10.55259 -4.717,19.10715 -10.53572,19.10715 -5.81871,0 -10.53571,-8.55456 -10.53571,-19.10715 0,-10.55258 4.717,-19.10714 10.53571,-19.10714 5.81872,0 10.53572,8.55456 10.53572,19.10714 z"
           transform="matrix(1.9661017,0,0,1.0654206,-620.08776,-255.42656)" />
        <path
           style="fill:#666690"
           d="m 340.91071,29.1875 c -0.81742,0.0409 -1.60969,0.29244 -2.40625,0.71875 -3.3902,1.81438 -5.8658,7.16637 -4.6875,10.1875 1.05374,2.70175 6.49285,8.02054 10.125,9.90625 1.375,0.71386 4.975,2.10923 8,3.09375 6.50691,2.11776 10.53102,2.03095 10.375,-0.21875 -0.0599,-0.86347 -3.33657,-5.94019 -7.28125,-11.28125 -6.61013,-8.95006 -10.58284,-12.5833 -14.125,-12.40625 z m 34,2.8125 c -1.798,0.10531 -3.59751,0.94415 -4.71875,2.65625 -2.22314,3.39467 -2.4343,16.16213 -0.3125,18.71875 1.1241,1.35445 1.60595,1.40732 2.625,0.34375 2.07435,-2.16497 8.4375,-14.80743 8.4375,-16.78125 0,-3.25088 -3.03458,-5.11301 -6.03125,-4.9375 z m 38.0625,96.84375 c -8.95222,-0.0784 -14.92675,4.45663 -16.5625,13.28125 -0.98775,5.32874 0.96755,10.05852 6.125,14.8125 3.69372,3.40475 4.7686,3.93354 5.96875,2.9375 0.83167,-0.69021 1.21004,-2.03813 0.875,-3.09375 -0.79781,-2.51368 1.09107,-2.38608 7.6875,0.5 7.78321,3.40532 10.41473,3.87811 11.84375,2.15625 0.97271,-1.17204 0.77923,-2.14046 -0.96875,-4.96875 -1.19933,-1.94053 -1.73748,-3.53125 -1.21875,-3.53125 0.51872,0 4.69886,1.755 9.3125,3.90625 4.61363,2.15125 10.27947,4.41755 12.59375,5.03125 2.31428,0.61369 4.47074,1.52883 4.78125,2.03125 0.76109,1.23147 6.39575,-2.06136 7.0625,-4.125 0.29228,-0.90463 -0.24523,-3.24279 -1.1875,-5.21875 -1.88794,-3.95906 -1.19063,-5.87812 1.25,-3.4375 0.91334,0.91334 1.75793,3.99213 2.03125,7.4375 0.55794,7.033 -1.09489,10.98885 -4.4375,10.625 -2.72655,-0.29679 -2.79747,1.14003 -0.1875,3.75 2.50243,2.50239 4.07368,2.51183 7.1875,0.0625 4.46057,-3.50869 6.30048,-15.52292 3.4375,-22.375 -2.91835,-6.98461 -7.13627,-8.51791 -11.65625,-4.1875 l -2.625,2.53125 -6.5,-4.28125 c -3.57433,-2.34758 -10.68152,-6.2328 -15.78125,-8.65625 -7.21945,-3.43077 -13.65992,-5.14044 -19.03125,-5.1875 z m 96.59375,13.09375 c -3.0181,0.0661 -5.9397,3.02256 -7.15625,8.5 l -0.6875,3 2.53125,-3 c 2.39715,-2.84205 2.62129,-2.91042 4.28125,-1.28125 1.15623,1.13479 1.88891,3.68577 2.125,7.5 0.42911,6.93266 -1.27101,10.88613 -4.53125,10.53125 -2.72655,-0.29679 -2.79747,1.14003 -0.1875,3.75 2.4262,2.4262 3.8302,2.50766 6.875,0.375 5.19956,-3.64192 6.81942,-16.02453 3.15625,-24.09375 -1.65441,-3.64432 -4.05884,-5.33268 -6.40625,-5.28125 z m -24.3125,0.125 c -0.73569,-0.0125 -1.40096,0.0608 -1.8125,0.21875 -1.90376,0.73054 -5.495,6.59673 -5.5,8.96875 -0.003,1.46625 0.45864,1.27823 2.4375,-1 2.30775,-2.65686 2.50204,-2.7222 4.15625,-1.09375 1.14959,1.13169 1.88956,3.69618 2.125,7.5 0.42911,6.93266 -1.27101,10.88613 -4.53125,10.53125 -2.72655,-0.29679 -2.79747,1.14003 -0.1875,3.75 2.52768,2.52767 4.05342,2.50109 7.3125,-0.0625 6.98984,-5.4982 5.69531,-26.63134 -1.75,-28.5 -0.70468,-0.17687 -1.51431,-0.30001 -2.25,-0.3125 z m -0.125,34.15625 c -3.03055,0.15935 -5.82658,3.1957 -6.75,8.78125 l -0.5625,3.4375 1.59375,-2.75 c 3.2943,-5.70708 7.53125,-1.91269 7.53125,6.75 0,6.26471 -1.81011,9.77478 -4.71875,9.21875 -2.70704,-0.51748 -2.94735,0.87134 -0.625,3.4375 1.83061,2.0228 4.51284,2.35661 7.28125,0.875 4.3946,-2.35191 6.61423,-16.39767 3.6875,-23.3125 -1.89701,-4.48196 -4.76348,-6.5781 -7.4375,-6.4375 z m 24,0 c -3.03055,0.15935 -5.82658,3.1957 -6.75,8.78125 l -0.5625,3.4375 1.59375,-2.75 c 3.2943,-5.70708 7.53125,-1.91269 7.53125,6.75 0,6.26471 -1.81011,9.77478 -4.71875,9.21875 -2.70704,-0.51748 -2.94735,0.87134 -0.625,3.4375 1.83061,2.0228 4.51284,2.35661 7.28125,0.875 4.3946,-2.35191 6.61423,-16.39767 3.6875,-23.3125 -1.89701,-4.48196 -4.76348,-6.5781 -7.4375,-6.4375 z m -47.8125,0.0312 c -0.61663,0.0372 -1.23819,0.19561 -1.90625,0.5 -2.57591,1.17366 -5.5133,6.53239 -5.4375,9.90625 0.0289,1.28699 0.46202,0.99878 1.5625,-1.03125 2.88008,-5.31275 7.375,-1.16313 7.375,6.8125 0,5.32909 -1.98516,9.00718 -4.78125,8.90625 -2.61901,-0.0945 -2.79994,1.24313 -0.53125,3.75 2.07891,2.29717 5.6736,2.35765 7.90625,0.125 7.78427,-7.78427 4.2383,-28.39573 -3.5625,-28.96875 -0.20175,-0.0148 -0.41946,-0.0124 -0.625,0 z"
           id="path4073" />
        <path
           style="fill:#f9a95f"
           d="m 433.1254,52.41378 c -17.19552,0.0258 -36.72906,2.10435 -36.72906,4.6281 0,0.50588 2.29292,2.40582 5.09537,4.20461 14.38019,9.23015 22.29846,25.07755 20.68473,41.41088 -0.37435,3.78903 -0.26146,6.74885 0.27297,7.07827 0.5045,0.31097 2.65002,-0.063 4.79206,-0.81673 14.89927,-5.2428 43.93519,-5.7619 61.84191,-1.11921 18.94967,4.9131 34.34562,14.63173 41.97607,26.52837 3.11026,4.8492 3.45858,5.11109 4.94371,3.62988 1.29501,-1.29157 1.60747,-3.64166 1.60747,-12.43234 0,-13.91025 -2.241,-20.92851 -10.09973,-31.4892 -16.83711,-22.62598 -44.36226,-36.89154 -78.79612,-40.89665 -4.39995,-0.51177 -9.85753,-0.73457 -15.58938,-0.72598 z"
           id="path2979-3" />
        <path
           style="fill:#fc8a20"
           d="m 432.5491,55.37947 c -13.79863,-0.0208 -28.70803,1.45973 -31.78125,3.15625 -0.99015,0.5466 -0.17385,1.52848 2.96875,3.6875 5.60811,3.85287 12.92442,11.72916 15.375,16.53125 3.637,7.12696 5.17016,14.20739 5,22.90625 -0.12859,6.5733 0.12054,8.30115 1.1875,8.15625 0.74331,-0.10095 5.79001,-1.15511 11.1875,-2.34375 11.75549,-2.58883 33.9737,-3.0788 45.625,-1 10.17619,1.81563 23.87301,6.38842 30.90625,10.34375 5.00376,2.814 13.7556,10.84723 18.875,17.0625 0.19523,0.0542 0.35163,0.19974 0.375,0.40625 0.70162,0.86858 1.31689,1.69921 1.84375,2.46875 3.10522,4.53557 4.35312,2.81613 4.78125,-6.59375 0.62736,-13.78929 -2.7158,-23.58092 -11.96875,-35.15625 -9.48033,-11.85977 -18.59127,-19.1089 -32.875,-26.15625 -18.51307,-9.13404 -38.15671,-13.43355 -61.5,-13.46875 z"
           id="path2975-8" />
        <path
           style="fill:#686790"
           d="m 377.26785,64.50447 c -3.2819,0.0617 -6.38779,0.72773 -9.09375,2.09375 -9.11094,4.59939 -21.20556,13.25692 -27.5625,19.75 -12.05918,12.31744 -17.20974,23.62458 -17.9375,39.3125 -0.7756,16.71884 4.27481,29.089 17.625,43.0625 16.75983,17.54231 42.44006,29.2191 72.65625,33.0625 5.77072,0.73398 25.5,0.68896 25.5,-0.0625 0,-0.41708 -3.94269,-1.78851 -8.75,-3.03125 -27.46278,-7.09941 -47.23224,-25.13897 -47.5,-43.34375 -0.18108,-12.31151 4.99917,-21.61489 17.84375,-32.03125 9.08948,-7.37114 11.752,-12.77399 11.6875,-23.84375 -0.051,-8.75813 -1.8378,-14.25436 -6.8125,-21.03125 -6.45323,-8.79107 -17.81054,-14.12276 -27.65625,-13.9375 z m 2.96875,12.96875 c 5.95141,-0.002 9.48821,1.49045 13.34375,5.65625 3.97218,4.29183 5.15625,7.23617 5.15625,12.8125 0,7.68822 -4.7743,14.89219 -11.59375,17.46875 -4.36567,1.64947 -11.83833,1.28309 -15.6875,-0.78125 -1.90264,-1.02039 -4.80497,-3.53809 -6.46875,-5.59375 -2.75036,-3.39816 -3.03125,-4.41233 -3.03125,-11.0625 0,-6.66384 0.26453,-7.6552 3.0625,-11.15625 4.07987,-5.10508 8.7048,-7.34175 15.21875,-7.34375 z m 11,19.0625 c -2.74851,0.13827 -4.90837,3.89933 -2.75,6.5 0.66276,0.79858 2.00344,1.4375 2.96875,1.4375 3.97883,0 5.21233,-5.19459 1.75,-7.375 -0.64967,-0.40913 -1.33448,-0.59441 -1.96875,-0.5625 z m 139.3125,2.9375 c -2.55111,0 -7.37044,9.9745 -9.03125,18.6875 -0.77692,4.07592 -0.66824,4.29584 4.15625,9 2.71994,2.6521 6.3066,6.76924 7.96875,9.15625 2.25379,3.23669 3.31007,4.03368 4.15625,3.1875 1.6062,-1.6062 2.06545,-15.73172 0.71875,-22.21875 -1.28219,-6.17627 -6.49377,-17.8125 -7.96875,-17.8125 z m -115.3125,27.8125 -1.34375,0.90625 c 0.62514,-0.26161 1.26204,-0.49891 1.90625,-0.75 l -0.5625,-0.15625 z"
           id="path2971-9" />
        <path
           style="fill:#04044a"
           d="m 373.70535,64.06697 c -3.13158,0.0528 -4.92609,0.83064 -9.78125,3.40625 -20.45772,10.85261 -34.73643,26.09738 -40.03125,42.78125 -9.11155,28.71028 7.15634,58.42004 41.375,75.625 11.74671,5.90618 30.49861,11.27847 46.65625,13.375 4.3574,0.56539 18.5,0.78543 18.5,0.28125 0,-0.23597 -2.5875,-1.17838 -5.75,-2.09375 -8.49195,-2.45795 -19.58511,-7.83369 -26.78125,-12.96875 -17.59128,-12.55288 -23.49422,-30.70843 -15.25,-46.9375 2.45377,-4.83033 10.81435,-13.8095 16.53125,-17.75 7.21092,-4.97028 11.06278,-16.24141 9.28125,-27.1875 -2.54542,-15.63971 -15.28007,-27.31109 -31,-28.40625 -1.50651,-0.10495 -2.70614,-0.1426 -3.75,-0.125 z m 4.09375,10.59375 c 9.52418,0 17.12099,5.99995 19.6875,15.53125 2.02463,7.51889 -1.69909,16.30131 -8.8125,20.8125 -3.74434,2.37459 -5.71421,2.93775 -10.1875,2.90625 -6.70276,-0.0472 -10.51475,-1.62049 -14.75,-6.09375 -3.9758,-4.19926 -5.3125,-7.66866 -5.3125,-13.78125 0,-10.66685 8.70967,-19.375 19.375,-19.375 z m 11.4375,21.4375 c -2.17427,-0.0424 -3.33969,2.005 -2.40625,4.4375 0.3614,0.9418 1.49147,1.44202 2.84375,1.25 1.65273,-0.23469 2.25,-1.01102 2.25,-2.84375 0,-1.83273 -0.59727,-2.57781 -2.25,-2.8125 -0.15357,-0.0218 -0.29255,-0.0284 -0.4375,-0.0312 z m 138.8125,1.625 -2.3125,2.875 c -2.5541,3.19839 -6.3125,13.4316 -6.3125,17.1875 0,1.66098 2.04226,4.42905 6.4375,8.78125 3.53631,3.50168 6.71174,7.26985 7.0625,8.375 0.88425,2.78601 2.34692,2.50639 3.125,-0.59375 1.97456,-7.86724 -1.59512,-26.74577 -6.46875,-34.25 l -1.53125,-2.375 z"
           id="path2969-5" />
        <path
           style="fill:#0d0a0d"
           d="m 389.2366,95.59822 c -2.17427,-0.0424 -3.33969,2.005 -2.40625,4.4375 0.3614,0.9418 1.49147,1.44202 2.84375,1.25 1.65273,-0.23469 2.25,-1.01102 2.25,-2.84375 0,-1.83273 -0.59727,-2.57781 -2.25,-2.8125 -0.15357,-0.0218 -0.29255,-0.0284 -0.4375,-0.0312 z m 139.0625,1.34375 -2.4375,3 c -2.71571,3.36528 -6.4375,13.50595 -6.4375,17.53125 0,1.88484 1.17624,3.59292 4.09375,5.9375 2.24622,1.80511 5.70424,5.5207 7.6875,8.28125 3.09611,4.30956 3.70859,4.77375 4.34375,3.15625 1.13949,-2.90182 0.99767,-13.69629 -0.25,-19.59375 -0.61661,-2.91457 -2.44095,-8.2375 -4.0625,-11.8125 l -2.9375,-6.5 z"
           id="path2967-8" />
        <path
           style="fill:#06064c"
           d="m 341.1741,29.72321 c -1.14166,0.0928 -2.23011,0.77953 -3.5625,2.03125 -3.36207,3.1585 -3.16049,8.65369 0.4375,12 4.18468,3.89196 7.63908,5.85192 13.96875,7.875 6.35406,2.03087 8.90881,2.34632 9.625,1.1875 0.66729,-1.0797 -11.31804,-17.19147 -15.25,-20.5 -2.21751,-1.86591 -3.75091,-2.71309 -5.21875,-2.59375 z m 34.6875,2.90625 c -1.36653,-0.003 -2.77934,0.51626 -3.8125,1.6875 -2.19434,2.48758 -3.04183,7.55521 -2.25,13.3125 0.3784,2.75128 1.19072,4.9375 1.84375,4.9375 1.31128,0 8.65725,-13.59615 8.65625,-16.03125 -0.001,-2.41239 -2.15995,-3.90078 -4.4375,-3.90625 z m 35.5,97.46875 c -5.6838,0.0559 -6.46316,0.47916 -9.03125,2.9375 -6.51339,6.23503 -6.28777,15.16452 0.53125,22.28125 4.22392,4.40833 7.1112,4.98397 5.90625,1.1875 -1.04268,-3.28518 0.33614,-4.03392 4.3125,-2.3125 15.40508,6.66906 18.71275,6.20414 12.84375,-1.84375 -1.09808,-1.50574 -1.70905,-3.04094 -1.34375,-3.40625 0.36531,-0.36531 4.61688,1.14813 9.4375,3.375 16.17932,7.47399 22.08724,8.85202 25.09375,5.84375 1.54765,-1.54857 1.50871,-1.93061 -0.5625,-5.53125 -1.97295,-3.42983 -2.04308,-3.99997 -0.6875,-5.125 1.26433,-1.0493 1.90097,-0.88027 3.71875,0.9375 1.84593,1.84593 2.21875,3.31503 2.21875,9.25 0,6.40799 -0.26524,7.26021 -2.6875,9.34375 -1.96698,1.69192 -2.35561,2.61314 -1.53125,3.4375 2.57563,2.57563 6.09061,0.24803 8.25,-5.40625 2.18856,-5.73067 1.52513,-15.58778 -1.3125,-19.40625 -2.69642,-3.62845 -6.64093,-3.9228 -8.78125,-0.65625 -0.9227,1.40821 -2.06165,2.5625 -2.53125,2.5625 -0.46959,0 -4.05094,-2.05933 -7.96875,-4.59375 -3.9178,-2.53441 -11.0194,-6.48031 -15.78125,-8.75 -8.07026,-3.84662 -9.25125,-4.1108 -17.34375,-4.125 -1.03272,-0.002 -1.93803,-0.008 -2.75,0 z m 73.71875,12.625 c -0.853,0.0472 -1.65972,0.33856 -2.34375,0.90625 -1.97491,1.63902 -1.82781,2.31499 0.78125,3.46875 2.96578,1.31151 4.7319,5.07229 4.75,10.09375 0.0199,5.53738 -1.73355,10.17848 -4.125,10.9375 -1.56895,0.49796 -1.71757,0.90306 -0.78125,2.03125 2.507,3.02075 6.23841,0.8088 8.46875,-5.03125 2.25068,-5.89331 1.63715,-15.47306 -1.21875,-19.3125 -1.56256,-2.10069 -3.65464,-3.1977 -5.53125,-3.09375 z m 24.34375,0 c -1.01073,0.0655 -2.09146,0.41158 -2.6875,0.90625 -1.8052,1.49818 -1.89838,4.0555 -0.125,3.375 2.26277,-0.86831 4.9438,3.2995 5.4375,8.4375 0.57755,6.01067 -1.19738,11.80641 -3.875,12.65625 -1.58731,0.50379 -1.7494,0.9336 -0.8125,2.0625 1.70029,2.04872 3.68704,1.75046 6.40625,-0.96875 6.27431,-6.27431 3.83941,-25.36825 -3.375,-26.4375 -0.30315,-0.0449 -0.63184,-0.0531 -0.96875,-0.0312 z m -23.90625,33.9375 c -0.64518,0.0502 -1.21166,0.48892 -2.15625,1.34375 -2.60008,2.35306 -2.63173,3.5625 -0.0937,3.5625 2.70076,0 5.03125,4.85738 5.03125,10.5 0,5.1693 -2.30319,10.5 -4.53125,10.5 -1.56441,0 -1.96627,1.18999 -0.78125,2.375 1.4708,1.47081 5.67695,0.0377 7.65625,-2.625 1.40735,-1.89329 2.17956,-4.72125 2.4375,-9 0.47171,-7.82458 -1.38161,-13.64662 -4.96875,-15.65625 -1.22468,-0.6861 -1.94857,-1.05018 -2.59375,-1 z m -23.65625,0.0312 c -1.00591,0.0136 -2.02672,0.49547 -3,1.46875 -2.14975,2.14975 -1.98172,3.40625 0.46875,3.40625 2.48135,0 4.96875,5.23543 4.96875,10.5 0,4.64915 -2.49885,10.5 -4.46875,10.5 -1.63044,0 -2.04934,1.16942 -0.84375,2.375 1.43579,1.4358 5.65337,0.0582 7.53125,-2.46875 2.83763,-3.81847 3.50106,-13.67558 1.3125,-19.40625 -1.60143,-4.19328 -3.75574,-6.40483 -5.96875,-6.375 z m 48.25,0.25 c -0.98726,-0.0258 -1.94029,0.33566 -2.8125,1.125 -2.58811,2.34221 -2.53351,3.29222 0.21875,3.6875 3.39153,0.48709 4.89619,4.42862 4.5,11.71875 -0.30111,5.54051 -0.70469,6.68245 -3.0625,8.5625 -1.49555,1.19251 -2.37467,2.50033 -1.96875,2.90625 1.49784,1.49783 5.64895,0.044 7.65625,-2.65625 2.76871,-3.72457 3.47458,-14.75063 1.28125,-20 -1.40183,-3.35507 -3.64053,-5.28704 -5.8125,-5.34375 z m -79.53125,23.6875 c -0.0258,0.15731 -0.0614,0.31245 -0.0937,0.46875 0.32684,-0.10113 0.42049,-0.22253 0.25,-0.375 -0.0292,-0.0261 -0.10799,-0.0621 -0.15625,-0.0937 z"
           id="path4071" />
      </g>
    </g>
  </g>
</svg>
